<svg xmlns='http://www.w3.org/2000/svg' class='d-none'>
  <symbol fill='currentColor' id='music-note-list' viewBox='0 0 16 16'>
    <path d='M12 13c0 1.105-1.12 2-2.5 2S7 14.105 7 13s1.12-2 2.5-2 2.5.895 2.5 2'/>
    <path fill-rule='evenodd' d='M12 3v10h-1V3z'/>
    <path d='M11 2.82a1 1 0 0 1 .804-.98l3-.6A1 1 0 0 1 16 2.22V4l-5 1z'/>
    <path fill-rule='evenodd' d='M0 11.5a.5.5 0 0 1 .5-.5H4a.5.5 0 0 1 0 1H.5a.5.5 0 0 1-.5-.5m0-4A.5.5 0 0 1 .5 7H8a.5.5 0 0 1 0 1H.5a.5.5 0 0 1-.5-.5m0-4A.5.5 0 0 1 .5 3H8a.5.5 0 0 1 0 1H.5a.5.5 0 0 1-.5-.5'/>
  </symbol>
  <symbol fill='currentColor' id='home' viewBox='0 0 16 16'>
    <path d='M8.354 1.146a.5.5 0 0 0-.708 0l-6 6A.5.5 0 0 0 1.5 7.5v7a.5.5 0 0 0 .5.5h4.5a.5.5 0 0 0 .5-.5v-4h2v4a.5.5 0 0 0 .5.5H14a.5.5 0 0 0 .5-.5v-7a.5.5 0 0 0-.146-.354L13 5.793V2.5a.5.5 0 0 0-.5-.5h-1a.5.5 0 0 0-.5.5v1.293L8.354 1.146zM2.5 14V7.707l5.5-5.5 5.5 5.5V14H10v-4a.5.5 0 0 0-.5-.5h-3a.5.5 0 0 0-.5.5v4H2.5z'/>
  </symbol>
  <symbol fill='currentColor' id='table' viewBox='0 0 16 16'>
    <path d='M0 2a2 2 0 0 1 2-2h12a2 2 0 0 1 2 2v12a2 2 0 0 1-2 2H2a2 2 0 0 1-2-2V2zm15 2h-4v3h4V4zm0 4h-4v3h4V8zm0 4h-4v3h3a1 1 0 0 0 1-1v-2zm-5 3v-3H6v3h4zm-5 0v-3H1v2a1 1 0 0 0 1 1h3zm-4-4h4V8H1v3zm0-4h4V4H1v3zm5-3v3h4V4H6zm4 4H6v3h4V8z'/>
  </symbol>
  <symbol fill='currentColor' id='people-circle' viewBox='0 0 16 16'>
    <path d='M11 6a3 3 0 1 1-6 0 3 3 0 0 1 6 0z'/>
    <path fill-rule='evenodd' d='M0 8a8 8 0 1 1 16 0A8 8 0 0 1 0 8zm8-7a7 7 0 0 0-5.468 11.37C3.242 11.226 4.805 10 8 10s4.757 1.225 5.468 2.37A7 7 0 0 0 8 1z'/>
  </symbol>
  <symbol fill='currentColor' id='translate' viewBox='0 0 16 16'>
    <path d='M4.545 6.714 4.11 8H3l1.862-5h1.284L8 8H6.833l-.435-1.286zm1.634-.736L5.5 3.956h-.049l-.679 2.022z'/>
    <path d='M0 2a2 2 0 0 1 2-2h7a2 2 0 0 1 2 2v3h3a2 2 0 0 1 2 2v7a2 2 0 0 1-2 2H7a2 2 0 0 1-2-2v-3H2a2 2 0 0 1-2-2zm2-1a1 1 0 0 0-1 1v7a1 1 0 0 0 1 1h7a1 1 0 0 0 1-1V2a1 1 0 0 0-1-1zm7.138 9.995q.289.451.63.846c-.748.575-1.673 1.001-2.768 1.292.178.217.451.635.555.867 1.125-.359 2.08-.844 2.886-1.494.777.665 1.739 1.165 2.93 1.472.133-.254.414-.673.629-.89-1.125-.253-2.057-.694-2.82-1.284.681-.747 1.222-1.651 1.621-2.757H14V8h-3v1.047h.765c-.318.844-.74 1.546-1.272 2.13a6 6 0 0 1-.415-.492 2 2 0 0 1-.94.31'/>
  </symbol>
  <symbol fill='currentColor' id='wrench-adjustable' viewBox='0 0 16 16'>
    <path d="M16 4.5a4.5 4.5 0 0 1-1.703 3.526L13 5l2.959-1.11q.04.3.041.61"/>
    <path d="M11.5 9c.653 0 1.273-.139 1.833-.39L12 5.5 11 3l3.826-1.53A4.5 4.5 0 0 0 7.29 6.092l-6.116 5.096a2.583 2.583 0 1 0 3.638 3.638L9.908 8.71A4.5 4.5 0 0 0 11.5 9m-1.292-4.361-.596.893.809-.27a.25.25 0 0 1 .287.377l-.596.893.809-.27.158.475-1.5.5a.25.25 0 0 1-.287-.376l.596-.893-.809.27a.25.25 0 0 1-.287-.377l.596-.893-.809.27-.158-.475 1.5-.5a.25.25 0 0 1 .287.376M3 14a1 1 0 1 1 0-2 1 1 0 0 1 0 2"/>
  </symbol>
</svg>
